HIERARCHY
ROOT hip
{
	OFFSET	0.00  0.00  0.00 
	CHANNELS 6 Xposition Yposition Zposition Xrotation Zrotation Yrotation
	JOINT waist
	{
		OFFSET	0.000000 2.191865 -0.079388
		CHANNELS 3 Xrotation Zrotation Yrotation
		JOINT abdomen
		{
			OFFSET	0.000000 2.770984 0.119082
			CHANNELS 3 Xrotation Zrotation Yrotation
			JOINT chest
			{
				OFFSET	0.000000 2.879627 -0.290598
				CHANNELS 3 Xrotation Zrotation Yrotation
				JOINT neck
				{
					OFFSET	0.000000 12.342733 -1.613748
					CHANNELS 3 Xrotation Zrotation Yrotation
					JOINT head
					{
						OFFSET	0.000000 4.485597 1.807195
						CHANNELS 3 Xrotation Zrotation Yrotation
						End Site
						{
							OFFSET 0.000000 7.191734 2.024398
						}
					}
				}
				JOINT lCollar
				{
					OFFSET	1.858774 10.237258 -1.915852
					CHANNELS 3 Zrotation Yrotation Xrotation
					JOINT lShldr
					{
						OFFSET	6.103279 0.000102 -0.038601
						CHANNELS 3 Zrotation Yrotation Xrotation
						JOINT lForeArm
						{
							OFFSET	10.574100 -0.365985 -0.655940
							CHANNELS 3 Zrotation Yrotation Xrotation
							JOINT lHand
							{
								OFFSET	13.213392 -0.641131 0.276866
								CHANNELS 3 Zrotation Yrotation Xrotation
								JOINT lThumb1
								{
									OFFSET	1.920964 -1.225712 1.722395
									CHANNELS 3 Zrotation Yrotation Xrotation
									JOINT lThumb2
									{
										OFFSET	0.248544 -0.143036 0.768265
										CHANNELS 3 Zrotation Yrotation Xrotation
										JOINT lThumb3
										{
											OFFSET	0.628484 -0.225174 0.508305
											CHANNELS 3 Zrotation Yrotation Xrotation
											End Site
											{
												OFFSET 0.831712 -0.207978 0.609962
											}
										}
									}
								}
								JOINT lIndex1
								{
									OFFSET	5.093442 -0.710319 1.829884
									CHANNELS 3 Zrotation Yrotation Xrotation
									JOINT lIndex2
									{
										OFFSET	0.889470 -0.051998 0.127073
										CHANNELS 3 Zrotation Yrotation Xrotation
										JOINT lIndex3
										{
											OFFSET	0.889570 -0.155981 0.127073
											CHANNELS 3 Zrotation Yrotation Xrotation
											End Site
											{
												OFFSET 0.797115 -0.294470 0.076252
											}
										}
									}
								}
								JOINT lMid1
								{
									OFFSET	5.154641 -0.519844 0.864111
									CHANNELS 3 Zrotation Yrotation Xrotation
									JOINT lMid2
									{
										OFFSET	0.928821 -0.051992 0.050831
										CHANNELS 3 Zrotation Yrotation Xrotation
										JOINT lMid3
										{
											OFFSET	0.984253 -0.311865 0.050831
											CHANNELS 3 Zrotation Yrotation Xrotation
											End Site
											{
												OFFSET 0.779717 -0.606438 -0.050831
											}
										}
									}
								}
								JOINT lRing1
								{
									OFFSET	4.924408 -0.754930 -0.235503
									CHANNELS 3 Zrotation Yrotation Xrotation
									JOINT lRing2
									{
										OFFSET	0.981624 -0.036924 -0.108278
										CHANNELS 3 Zrotation Yrotation Xrotation
										JOINT lRing3
										{
											OFFSET	0.805613 -0.205247 -0.041717
											CHANNELS 3 Zrotation Yrotation Xrotation
											End Site
											{
												OFFSET 0.667431 -0.470481 -0.035991
											}
										}
									}
								}
								JOINT lPinky1
								{
									OFFSET	4.535460 -0.816635 -1.006206
									CHANNELS 3 Zrotation Yrotation Xrotation
									JOINT lPinky2
									{
										OFFSET	0.690596 -0.064334 -0.168800
										CHANNELS 3 Zrotation Yrotation Xrotation
										JOINT lPinky3
										{
											OFFSET	0.598039 -0.111176 -0.071973
											CHANNELS 3 Zrotation Yrotation Xrotation
											End Site
											{
												OFFSET 0.422025 -0.290925 -0.035981
											}
										}
									}
								}
							}
						}
					}
				}
				JOINT rCollar
				{
					OFFSET	-1.858774 10.237258 -1.915852
					CHANNELS 3 Zrotation Yrotation Xrotation
					JOINT rShldr
					{
						OFFSET	-6.103279 0.000102 -0.038601
						CHANNELS 3 Zrotation Yrotation Xrotation
						JOINT rForeArm
						{
							OFFSET	-10.574100 -0.365985 -0.655940
							CHANNELS 3 Zrotation Yrotation Xrotation
							JOINT rHand
							{
								OFFSET	-13.213392 -0.641131 0.276866
								CHANNELS 3 Zrotation Yrotation Xrotation
								JOINT rIndex1
								{
									OFFSET	-5.093442 -0.710319 1.829884
									CHANNELS 3 Zrotation Yrotation Xrotation
									JOINT rIndex2
									{
										OFFSET	-0.889470 -0.051998 0.127073
										CHANNELS 3 Zrotation Yrotation Xrotation
										JOINT rIndex3
										{
											OFFSET	-0.889570 -0.155981 0.127073
											CHANNELS 3 Zrotation Yrotation Xrotation
											End Site
											{
												OFFSET -0.797115 -0.294470 0.076252
											}
										}
									}
								}
								JOINT rThumb1
								{
									OFFSET	-1.920964 -1.225712 1.722395
									CHANNELS 3 Zrotation Yrotation Xrotation
									JOINT rThumb2
									{
										OFFSET	-0.248544 -0.143036 0.768265
										CHANNELS 3 Zrotation Yrotation Xrotation
										JOINT rThumb3
										{
											OFFSET	-0.628484 -0.225174 0.508305
											CHANNELS 3 Zrotation Yrotation Xrotation
											End Site
											{
												OFFSET -0.831712 -0.207978 0.609962
											}
										}
									}
								}
								JOINT rMid1
								{
									OFFSET	-5.154641 -0.519844 0.864111
									CHANNELS 3 Zrotation Yrotation Xrotation
									JOINT rMid2
									{
										OFFSET	-0.928821 -0.051992 0.050831
										CHANNELS 3 Zrotation Yrotation Xrotation
										JOINT rMid3
										{
											OFFSET	-0.984253 -0.311865 0.050831
											CHANNELS 3 Zrotation Yrotation Xrotation
											End Site
											{
												OFFSET -0.779717 -0.606438 -0.050831
											}
										}
									}
								}
								JOINT rRing1
								{
									OFFSET	-4.924408 -0.754930 -0.235503
									CHANNELS 3 Zrotation Yrotation Xrotation
									JOINT rRing2
									{
										OFFSET	-0.981624 -0.036924 -0.108278
										CHANNELS 3 Zrotation Yrotation Xrotation
										JOINT rRing3
										{
											OFFSET	-0.805613 -0.205247 -0.041717
											CHANNELS 3 Zrotation Yrotation Xrotation
											End Site
											{
												OFFSET -0.667431 -0.470481 -0.035991
											}
										}
									}
								}
								JOINT rPinky1
								{
									OFFSET	-4.535460 -0.816635 -1.006206
									CHANNELS 3 Zrotation Yrotation Xrotation
									JOINT rPinky2
									{
										OFFSET	-0.690596 -0.064334 -0.168800
										CHANNELS 3 Zrotation Yrotation Xrotation
										JOINT rPinky3
										{
											OFFSET	-0.598039 -0.111176 -0.071973
											CHANNELS 3 Zrotation Yrotation Xrotation
											End Site
											{
												OFFSET -0.422025 -0.290925 -0.035981
											}
										}
									}
								}
							}
						}
					}
				}
			}
		}
	}
	JOINT lThigh
	{
		OFFSET	5.761895 -0.730553 0.000101
		CHANNELS 3 Xrotation Zrotation Yrotation
		JOINT lShin
		{
			OFFSET	-1.171020 -18.459274 1.627449
			CHANNELS 3 Xrotation Zrotation Yrotation
			JOINT lFoot
			{
				OFFSET	-0.883715 -16.872776 -3.357785
				CHANNELS 3 Xrotation Zrotation Yrotation
				JOINT lToe
				{
					OFFSET	1.287613 -2.778491 2.836049
					CHANNELS 3 Xrotation Yrotation Zrotation
					End Site
					{
						OFFSET 1.362641 -0.436631 3.828194
					}
				}
			}
		}
	}
	JOINT rThigh
	{
		OFFSET	-5.761895 -0.730553 0.000101
		CHANNELS 3 Xrotation Zrotation Yrotation
		JOINT rShin
		{
			OFFSET	1.171020 -18.459274 1.627449
			CHANNELS 3 Xrotation Zrotation Yrotation
			JOINT rFoot
			{
				OFFSET	0.883715 -16.872776 -3.357785
				CHANNELS 3 Xrotation Zrotation Yrotation
				JOINT rToe
				{
					OFFSET	-1.287613 -2.778491 2.836049
					CHANNELS 3 Xrotation Yrotation Zrotation
					End Site
					{
						OFFSET -1.362641 -0.436631 3.828194
					}
				}
			}
		}
	}
}
MOTION
Frames:     5
Frame Time: 0.033333
-26.379999 38.877926 -34.283566 6.167340 -0.439957 -5.389665 -11.660330 0.682968 -0.029235 -4.218750 -0.019201 -0.003578 24.133471 -0.857072 -5.364691 14.493888 5.540927 -20.865532 1.952320 10.618126 -19.947628 3.081870 -3.124378 2.119679 -64.526428 -2.596209 4.580147 -7.094009 -27.137318 27.572309 -0.899700 -1.376502 -2.364953 8.270755 23.617752 15.775247 -1.034449 -19.649366 -5.354181 -2.513255 8.160061 4.303534 -5.627441 -9.626149 0.225168 5.883113 -2.462890 -1.279084 5.753754 -4.259270 -2.131546 -3.404094 -3.548860 -0.022214 6.930795 1.287455 0.036015 17.368288 -7.523004 -4.751523 -8.804057 0.885197 -0.805234 10.993954 5.617076 1.992578 23.416513 -1.549249 0.204120 -12.749164 -4.144636 -3.893468 4.013253 13.071599 2.893945 29.059664 -4.419006 -0.490039 0.394921 4.443116 2.440453 67.532234 3.500916 10.228040 4.169350 24.173563 27.913260 1.427171 1.678856 -2.367511 5.371086 9.745362 0.182905 -5.980333 2.460839 -1.288811 -5.814634 4.377452 -2.177860 -8.214426 -23.612394 14.735620 1.223073 19.674887 -5.220747 2.610643 -8.143961 4.393424 3.462921 3.616970 -0.022343 -6.909909 -1.118906 -0.014015 -17.471909 7.588184 -4.795341 9.210763 -0.713480 -0.842483 -10.934525 -5.588952 1.983351 -23.503174 1.466422 0.271036 13.199415 4.524673 -4.037564 -3.862419 -13.035691 2.868390 -0.019979 -0.021404 0.003737 -30.540991 5.618850 5.735111 23.663052 13.628172 -13.067271 -5.780902 11.038182 -15.870760 4.631858 22.857437 0.916780 -23.719309 -5.946850 -8.170512 26.205681 -14.609905 0.280815 8.072643 -18.473755 -10.983201 8.272758 4.901990 3.586452 
-27.382418 38.995281 -35.102734 6.724499 -1.107779 -5.186853 -11.660330 0.682968 -0.029235 -4.218750 -0.019201 -0.003578 23.859467 0.052815 -4.535148 13.093575 5.581552 -19.722549 2.218061 9.663398 -18.457390 2.994043 -3.290385 2.109430 -64.067924 -4.178807 5.064510 -7.298333 -26.448015 28.226599 -1.036481 -1.696650 -2.398124 -0.018104 -0.003944 -0.010280 -0.015681 -0.006574 -0.010607 -0.015424 -0.007546 -0.010088 -5.627441 -9.626149 0.225168 5.883113 -2.462890 -1.279084 5.753754 -4.259270 -2.131546 -3.404094 -3.548860 -0.022214 6.930795 1.287455 0.036015 17.368288 -7.523004 -4.751523 -8.804057 0.885197 -0.805234 10.993954 5.617076 1.992578 23.416513 -1.549249 0.204120 -12.749164 -4.144636 -3.893468 4.013253 13.071599 2.893945 29.059664 -4.419006 -0.490039 0.697399 4.892404 2.438712 66.861435 6.144153 10.415627 4.274538 24.007998 28.986536 1.456320 2.173206 -2.427098 5.371086 9.745362 0.182905 -5.980333 2.460839 -1.288811 -5.814634 4.377452 -2.177860 -0.001427 -0.010679 0.002670 -0.003851 -0.011809 -0.004022 -0.004104 -0.011405 -0.005351 3.462921 3.616970 -0.022343 -6.909909 -1.118906 -0.014015 -17.471909 7.588184 -4.795341 9.210763 -0.713480 -0.842483 -10.934525 -5.588952 1.983351 -23.503174 1.466422 0.271036 13.199415 4.524673 -4.037564 -3.862419 -13.035691 2.868390 -0.019979 -0.021404 0.003737 -31.554075 7.218682 5.593593 22.545923 13.924779 -14.256007 -7.220357 11.672465 -16.241810 4.631858 22.857437 0.916780 -23.699381 -4.318938 -8.857530 23.944853 -13.335861 0.920408 5.884252 -15.917661 -9.920702 8.272758 4.901990 3.586452 
-28.349964 39.081158 -35.964630 7.262681 -1.664234 -4.659711 -11.660330 0.682968 -0.029235 -4.218750 -0.019201 -0.003578 23.650026 0.714512 -4.037885 11.818016 5.832406 -18.637329 2.303334 8.606237 -16.907150 2.984375 -3.456407 2.089894 -63.273209 -6.409897 5.425095 -7.405417 -26.192919 29.265068 -1.153469 -2.133051 -2.446521 -0.018104 -0.003944 -0.010280 -0.015681 -0.006574 -0.010607 -0.015424 -0.007546 -0.010088 -5.627441 -9.626149 0.225168 5.883113 -2.462890 -1.279084 5.753754 -4.259270 -2.131546 -3.404094 -3.548860 -0.022214 6.930795 1.287455 0.036015 17.368288 -7.523004 -4.751523 -8.804057 0.885197 -0.805234 10.993954 5.617076 1.992578 23.416513 -1.549249 0.204120 -12.749164 -4.144636 -3.893468 4.013253 13.071599 2.893945 29.059664 -4.419006 -0.490039 0.951119 5.302624 2.447033 65.851074 9.113602 10.488057 4.531661 24.420670 29.848997 1.455860 2.541506 -2.472487 5.371086 9.745362 0.182905 -5.980333 2.460839 -1.288811 -5.814634 4.377452 -2.177860 -0.001427 -0.010679 0.002670 -0.003851 -0.011809 -0.004022 -0.004104 -0.011405 -0.005351 3.462921 3.616970 -0.022343 -6.909909 -1.118906 -0.014015 -17.471909 7.588184 -4.795341 9.210763 -0.713480 -0.842483 -10.934525 -5.588952 1.983351 -23.503174 1.466422 0.271036 13.199415 4.524673 -4.037564 -3.862419 -13.035691 2.868390 -0.019979 -0.021404 0.003737 -32.457493 8.483207 5.483128 21.086912 14.140519 -15.165406 -8.773676 12.035340 -16.128593 4.631858 22.857437 0.916780 -24.280005 -2.740159 -9.148624 22.715881 -12.309864 0.800564 4.675018 -13.449148 -9.072215 8.272758 4.901990 3.586452 
-29.228745 39.140564 -36.803917 7.556957 -1.846762 -3.744893 -11.660330 0.682968 -0.029235 -4.218750 -0.019201 -0.003578 23.603785 0.869751 -3.843360 10.677396 6.195834 -17.647192 2.140312 7.588051 -15.441966 3.111493 -3.622458 2.051665 -62.208050 -9.417890 5.630104 -7.436248 -26.437220 30.339527 -1.201755 -2.540227 -2.494455 -0.018104 -0.003944 -0.010280 -0.015681 -0.006574 -0.010607 -0.015424 -0.007546 -0.010088 -5.627441 -9.626149 0.225168 5.883113 -2.462890 -1.279084 5.753754 -4.259270 -2.131546 -3.404094 -3.548860 -0.022214 6.930795 1.287455 0.036015 17.368288 -7.523004 -4.751523 -8.804057 0.885197 -0.805234 10.993954 5.617076 1.992578 23.416513 -1.549249 0.204120 -12.749164 -4.144636 -3.893468 4.013253 13.071599 2.893945 29.059664 -4.419006 -0.490039 1.058339 5.595625 2.436702 64.383430 12.271194 10.266145 4.907068 25.446507 30.374334 1.377501 2.628593 -2.486795 5.371086 9.745362 0.182905 -5.980333 2.460839 -1.288811 -5.814634 4.377452 -2.177860 -0.001427 -0.010679 0.002670 -0.003851 -0.011809 -0.004022 -0.004104 -0.011405 -0.005351 3.462921 3.616970 -0.022343 -6.909909 -1.118906 -0.014015 -17.471909 7.588184 -4.795341 9.210763 -0.713480 -0.842483 -10.934525 -5.588952 1.983351 -23.503174 1.466422 0.271036 13.199415 4.524673 -4.037564 -3.862419 -13.035691 2.868390 -0.019979 -0.021404 0.003737 -33.167389 9.116545 5.441858 19.956799 14.131634 -15.318949 -9.843078 12.184157 -15.214713 4.631858 22.857437 0.916780 -25.012413 -1.617675 -9.189932 22.182516 -11.717169 0.093910 4.137777 -11.418416 -8.514943 8.272758 4.901990 3.586452 
-29.974377 39.182583 -37.563667 7.528685 -1.546392 -2.528338 -11.660330 0.682968 -0.029235 -4.218750 -0.019201 -0.003578 23.645018 0.519461 -3.784190 9.663824 6.471893 -16.724888 1.854127 6.710834 -14.135240 3.326520 -3.798295 2.004211 -60.755859 -13.161870 5.648573 -7.615724 -27.247276 31.121195 -1.220930 -2.724421 -2.516256 -0.018104 -0.003944 -0.010280 -0.015681 -0.006574 -0.010607 -0.015424 -0.007546 -0.010088 -5.627441 -9.626149 0.225168 5.883113 -2.462890 -1.279084 5.753754 -4.259270 -2.131546 -3.404094 -3.548860 -0.022214 6.930795 1.287455 0.036015 17.368288 -7.523004 -4.751523 -8.804057 0.885197 -0.805234 10.993954 5.617076 1.992578 23.416513 -1.549249 0.204120 -12.749164 -4.144636 -3.893468 4.013253 13.071599 2.893945 29.059664 -4.419006 -0.490039 0.989793 5.790927 2.407906 62.379868 15.499119 9.596344 5.271242 26.767960 30.699001 1.328602 2.638194 -2.490212 5.371086 9.745362 0.182905 -5.980333 2.460839 -1.288811 -5.814634 4.377452 -2.177860 -0.001427 -0.010679 0.002670 -0.003851 -0.011809 -0.004022 -0.004104 -0.011405 -0.005351 3.462921 3.616970 -0.022343 -6.909909 -1.118906 -0.014015 -17.471909 7.588184 -4.795341 9.210763 -0.713480 -0.842483 -10.934525 -5.588952 1.983351 -23.503174 1.466422 0.271036 13.199415 4.524673 -4.037564 -3.862419 -13.035691 2.868390 -0.019979 -0.021404 0.003737 -33.518990 8.884284 5.498884 19.767439 13.848772 -14.533217 -9.746967 12.169601 -13.273276 4.631858 22.857437 0.916780 -25.512348 -1.153265 -9.224785 21.988926 -11.505713 -0.787787 3.833121 -9.877168 -8.058495 8.272758 4.901990 3.586452 
